<svg xmlns="http://www.w3.org/2000/svg" xmlns:xlink="http://www.w3.org/1999/xlink" width="75" zoomAndPan="magnify" viewBox="0 0 56.25 375.000002" height="500" preserveAspectRatio="xMidYMid meet" version="1.0"><path fill="#f39200" d="M 51.417969 368.007812 C 40.074219 346.121094 37.460938 320.589844 36.863281 296.320312 C 36.191406 270.191406 37.90625 244.136719 40.296875 218.15625 C 42.757812 191.878906 45.820312 165.675781 47.683594 139.324219 C 48.582031 126.222656 49.101562 113.046875 49.179688 99.871094 C 49.253906 87.515625 49.328125 75.007812 47.835938 62.652344 C 46.34375 50.21875 42.832031 37.789062 34.25 28.257812 C 26.710938 19.921875 15.21875 13.890625 3.800781 16.199219 C -0.976562 17.167969 0.144531 24.613281 4.917969 24.613281 C 15.070312 24.539062 23.652344 28.484375 30.070312 36.300781 C 37.3125 45.082031 39.847656 56.84375 41.191406 67.789062 C 44.101562 92.652344 43.132812 117.960938 41.414062 142.898438 C 37.832031 193.519531 29.550781 243.988281 31.339844 294.832031 C 32.160156 320.738281 35.148438 346.941406 48.878906 369.496094 C 49.851562 371.132812 52.3125 369.71875 51.417969 368.007812 Z M 51.417969 368.007812 " fill-opacity="1" fill-rule="nonzero"/><path fill="#f39200" d="M 34.847656 358.179688 C 26.710938 335.996094 24.773438 313.070312 24.621094 289.621094 C 24.621094 288.355469 22.457031 287.910156 22.308594 289.324219 C 18.800781 312.773438 24.398438 337.1875 33.878906 358.703125 C 34.101562 359.148438 35.070312 358.777344 34.847656 358.179688 Z M 34.847656 358.179688 " fill-opacity="1" fill-rule="nonzero"/><path fill="#f39200" d="M 47.910156 36.96875 C 46.714844 28.410156 42.609375 20.519531 36.414062 14.5625 C 33.28125 11.511719 29.699219 8.90625 25.742188 7.117188 C 22.609375 5.628906 17.011719 2.875 13.800781 5.109375 C 12.308594 6.152344 12.085938 7.9375 13.277344 9.277344 C 15.441406 11.808594 20.367188 11.4375 23.503906 12.476562 C 27.085938 13.667969 30.445312 15.382812 33.503906 17.539062 C 40.148438 22.378906 45 29.300781 47.164062 37.191406 C 47.238281 37.714844 47.984375 37.492188 47.910156 36.96875 Z M 47.910156 36.96875 " fill-opacity="1" fill-rule="nonzero"/></svg>